<?xml version="1.0" encoding="UTF-8" standalone="no"?>
<!DOCTYPE svg PUBLIC "-//W3C//DTD SVG 1.1//EN"
 "http://www.w3.org/Graphics/SVG/1.1/DTD/svg11.dtd">
<!-- Generated by graphviz version 2.44.0 (0)
 -->
<!-- Title: QueryGraph Pages: 1 -->
<svg width="340pt" height="342pt"
 viewBox="0.00 0.00 340.00 342.00" xmlns="http://www.w3.org/2000/svg" xmlns:xlink="http://www.w3.org/1999/xlink">
<g id="graph0" class="graph" transform="scale(1 1) rotate(0) translate(4 338)">
<title>QueryGraph</title>
<polygon fill="white" stroke="transparent" points="-4,4 -4,-338 336,-338 336,4 -4,4"/>
<g id="clust1" class="cluster">
<title>cluster_0</title>
<path fill="white" stroke="#1c2915" stroke-width="3" d="M20,-109C20,-109 312,-109 312,-109 318,-109 324,-115 324,-121 324,-121 324,-314 324,-314 324,-320 318,-326 312,-326 312,-326 20,-326 20,-326 14,-326 8,-320 8,-314 8,-314 8,-121 8,-121 8,-115 14,-109 20,-109"/>
</g>
<!-- dt0_header -->
<g id="node1" class="node">
<title>dt0_header</title>
<polygon fill="#ccd5c4" stroke="transparent" points="16,-299 16,-318 316,-318 316,-299 16,-299"/>
<text text-anchor="start" x="158.5" y="-307" font-family="Helvetica" font-weight="bold" font-size="10.00" fill="#1c2915">dt1</text>
<text text-anchor="start" x="20" y="-287" font-family="Helvetica" font-size="10.00" fill="#1c2915">r_name := t2.r_name</text>
<text text-anchor="start" x="20" y="-268" font-family="Helvetica" font-size="10.00" fill="#1c2915">count := dt1.count</text>
<polygon fill="#ede3d9" stroke="transparent" points="16,-242 16,-261 316,-261 316,-242 16,-242"/>
<text text-anchor="start" x="20" y="-249" font-family="Helvetica" font-size="10.00" fill="#1c2915">GROUP BY: t2.r_name</text>
<polygon fill="#ede3d9" stroke="transparent" points="16,-223 16,-242 316,-242 316,-223 16,-223"/>
<text text-anchor="start" x="20" y="-230" font-family="Helvetica" font-size="10.00" fill="#1c2915">AGG: count := count()</text>
<polygon fill="#ede3d9" stroke="transparent" points="16,-204 16,-223 316,-223 316,-204 16,-204"/>
<text text-anchor="start" x="20" y="-211" font-family="Helvetica" font-size="10.00" fill="#1c2915">JOIN: 1. t2.r_regionkey = t3.n_regionkey</text>
</g>
<!-- dt0_t3 -->
<g id="node3" class="node">
<title>dt0_t3</title>
<ellipse fill="#af9d89" stroke="#1c2915" cx="166" cy="-131.5" rx="14.5" ry="14.5"/>
<text text-anchor="middle" x="166" y="-129" font-family="Helvetica" font-size="10.00" fill="#1c2915">t3</text>
</g>
<!-- dt0_header&#45;&gt;dt0_t3 -->
<!-- dt0_t2 -->
<g id="node2" class="node">
<title>dt0_t2</title>
<ellipse fill="#af9d89" stroke="#1c2915" cx="94" cy="-131.5" rx="14.5" ry="14.5"/>
<text text-anchor="middle" x="94" y="-129" font-family="Helvetica" font-size="10.00" fill="#1c2915">t2</text>
</g>
<!-- dt0_t2&#45;&gt;dt0_t3 -->
<g id="edge2" class="edge">
<title>dt0_t2&#45;&gt;dt0_t3</title>
<path fill="none" stroke="#727a6b" stroke-width="2" d="M107.95,-126.32C119.88,-122.53 127.38,-123.22 151.66,-128.39"/>
<text text-anchor="middle" x="122.18" y="-126.8" font-family="Helvetica" font-size="9.00" fill="#1c2915">1</text>
</g>
<!-- node_4 -->
<g id="node4" class="node">
<title>node_4</title>
<polygon fill="#ccd5c4" stroke="transparent" points="128,-38.5 128,-57.5 204,-57.5 204,-38.5 128,-38.5"/>
<text text-anchor="start" x="132" y="-46.5" font-family="Helvetica" font-weight="bold" font-size="10.00" fill="#1c2915">t2 (tiny.region)</text>
<text text-anchor="start" x="132" y="-26.5" font-family="Helvetica" font-size="10.00" fill="#1c2915">r_regionkey</text>
<text text-anchor="start" x="132" y="-7.5" font-family="Helvetica" font-size="10.00" fill="#1c2915">r_name</text>
<polygon fill="none" stroke="#1c2915" points="127,0 127,-59 205,-59 205,0 127,0"/>
</g>
<!-- dt0_t3&#45;&gt;node_4 -->
<!-- node_11 -->
<g id="node5" class="node">
<title>node_11</title>
<polygon fill="#ccd5c4" stroke="transparent" points="250,-29.5 250,-48.5 325,-48.5 325,-29.5 250,-29.5"/>
<text text-anchor="start" x="254" y="-37.5" font-family="Helvetica" font-weight="bold" font-size="10.00" fill="#1c2915">t3 (tiny.nation)</text>
<text text-anchor="start" x="254" y="-17.5" font-family="Helvetica" font-size="10.00" fill="#1c2915">n_regionkey</text>
<polygon fill="none" stroke="#1c2915" points="248.5,-9.5 248.5,-49.5 325.5,-49.5 325.5,-9.5 248.5,-9.5"/>
</g>
<!-- node_4&#45;&gt;node_11 -->
</g>
</svg>
