<?xml version="1.0" encoding="UTF-8" standalone="no"?>
<!DOCTYPE svg PUBLIC "-//W3C//DTD SVG 1.1//EN"
 "http://www.w3.org/Graphics/SVG/1.1/DTD/svg11.dtd">
<!-- Generated by graphviz version 2.44.0 (0)
 -->
<!-- Title: LogicalPlan Pages: 1 -->
<svg width="262pt" height="414pt"
 viewBox="0.00 0.00 261.50 414.00" xmlns="http://www.w3.org/2000/svg" xmlns:xlink="http://www.w3.org/1999/xlink">
<g id="graph0" class="graph" transform="scale(1 1) rotate(0) translate(4 410)">
<title>LogicalPlan</title>
<polygon fill="white" stroke="transparent" points="-4,4 -4,-410 257.5,-410 257.5,4 -4,4"/>
<!-- node_4 -->
<g id="node1" class="node">
<title>node_4</title>
<polygon fill="#ccd5c4" stroke="transparent" points="77.5,-385.5 77.5,-404.5 175.5,-404.5 175.5,-385.5 77.5,-385.5"/>
<text text-anchor="start" x="95.5" y="-393.5" font-family="Helvetica" font-weight="bold" font-size="10.00" fill="#1c2915">Aggregate [4]</text>
<polygon fill="#ede3d9" stroke="transparent" points="77.5,-366.5 77.5,-385.5 175.5,-385.5 175.5,-366.5 77.5,-366.5"/>
<text text-anchor="start" x="81.5" y="-373.5" font-family="Helvetica" font-size="10.00" fill="#1c2915">GROUP BY: r_name</text>
<text text-anchor="start" x="81.5" y="-354.5" font-family="Helvetica" font-size="10.00" fill="#1c2915">count := count()</text>
<polygon fill="none" stroke="#1c2915" points="76.5,-347 76.5,-406 176.5,-406 176.5,-347 76.5,-347"/>
</g>
<!-- node_3 -->
<g id="node2" class="node">
<title>node_3</title>
<polygon fill="#ccd5c4" stroke="transparent" points="60.5,-269 60.5,-288 192.5,-288 192.5,-269 60.5,-269"/>
<text text-anchor="start" x="107" y="-277" font-family="Helvetica" font-weight="bold" font-size="10.00" fill="#1c2915">Filter [3]</text>
<polygon fill="#ede3d9" stroke="transparent" points="60.5,-250 60.5,-269 192.5,-269 192.5,-250 60.5,-250"/>
<text text-anchor="start" x="64.5" y="-257" font-family="Helvetica" font-size="10.00" fill="#1c2915">eq(r_regionkey, n_regionkey)</text>
<polygon fill="none" stroke="#1c2915" points="59.5,-249 59.5,-289 193.5,-289 193.5,-249 59.5,-249"/>
</g>
<!-- node_4&#45;&gt;node_3 -->
<g id="edge1" class="edge">
<title>node_4&#45;&gt;node_3</title>
<path fill="none" stroke="#727a6b" stroke-width="2" d="M126.5,-346.95C126.5,-332.22 126.5,-314.27 126.5,-299.42"/>
<polygon fill="#727a6b" stroke="#727a6b" stroke-width="2" points="130,-299.24 126.5,-289.24 123,-299.24 130,-299.24"/>
</g>
<!-- node_2 -->
<g id="node3" class="node">
<title>node_2</title>
<polygon fill="#ccd5c4" stroke="transparent" points="87.5,-163 87.5,-182 165.5,-182 165.5,-163 87.5,-163"/>
<text text-anchor="start" x="91.5" y="-171" font-family="Helvetica" font-weight="bold" font-size="10.00" fill="#1c2915">Join INNER [2]</text>
<polygon fill="none" stroke="#1c2915" points="86.5,-162.5 86.5,-183.5 166.5,-183.5 166.5,-162.5 86.5,-162.5"/>
</g>
<!-- node_3&#45;&gt;node_2 -->
<g id="edge2" class="edge">
<title>node_3&#45;&gt;node_2</title>
<path fill="none" stroke="#727a6b" stroke-width="2" d="M126.5,-248.98C126.5,-235.34 126.5,-216.75 126.5,-201.5"/>
<polygon fill="#727a6b" stroke="#727a6b" stroke-width="2" points="130,-201.1 126.5,-191.1 123,-201.1 130,-201.1"/>
</g>
<!-- node_0 -->
<g id="node4" class="node">
<title>node_0</title>
<polygon fill="#ccd5c4" stroke="transparent" points="1.5,-67.5 1.5,-86.5 108.5,-86.5 108.5,-67.5 1.5,-67.5"/>
<text text-anchor="start" x="5.5" y="-75.5" font-family="Helvetica" font-weight="bold" font-size="10.00" fill="#1c2915">TableScan: region [0]</text>
<text text-anchor="start" x="5.5" y="-55.5" font-family="Helvetica" font-size="10.00" fill="#1c2915">r_regionkey</text>
<text text-anchor="start" x="5.5" y="-36.5" font-family="Helvetica" font-size="10.00" fill="#1c2915">r_name</text>
<text text-anchor="start" x="5.5" y="-17.5" font-family="Helvetica" font-size="10.00" fill="#1c2915">r_comment</text>
<polygon fill="none" stroke="#1c2915" points="0,-9.5 0,-87.5 109,-87.5 109,-9.5 0,-9.5"/>
</g>
<!-- node_2&#45;&gt;node_0 -->
<g id="edge3" class="edge">
<title>node_2&#45;&gt;node_0</title>
<path fill="none" stroke="#727a6b" stroke-width="2" d="M116.49,-154.97C107.56,-139.78 94.07,-116.83 81.95,-96.21"/>
<polygon fill="#727a6b" stroke="#727a6b" stroke-width="2" points="84.95,-94.39 76.86,-87.55 78.91,-97.94 84.95,-94.39"/>
</g>
<!-- node_1 -->
<g id="node5" class="node">
<title>node_1</title>
<polygon fill="#ccd5c4" stroke="transparent" points="146.5,-76.5 146.5,-95.5 252.5,-95.5 252.5,-76.5 146.5,-76.5"/>
<text text-anchor="start" x="150.5" y="-84.5" font-family="Helvetica" font-weight="bold" font-size="10.00" fill="#1c2915">TableScan: nation [1]</text>
<text text-anchor="start" x="150.5" y="-64.5" font-family="Helvetica" font-size="10.00" fill="#1c2915">n_nationkey</text>
<text text-anchor="start" x="150.5" y="-45.5" font-family="Helvetica" font-size="10.00" fill="#1c2915">n_name</text>
<text text-anchor="start" x="150.5" y="-26.5" font-family="Helvetica" font-size="10.00" fill="#1c2915">n_regionkey</text>
<text text-anchor="start" x="150.5" y="-7.5" font-family="Helvetica" font-size="10.00" fill="#1c2915">n_comment</text>
<polygon fill="none" stroke="#1c2915" points="145.5,0 145.5,-97 253.5,-97 253.5,0 145.5,0"/>
</g>
<!-- node_2&#45;&gt;node_1 -->
<g id="edge4" class="edge">
<title>node_2&#45;&gt;node_1</title>
<path fill="none" stroke="#727a6b" stroke-width="2" d="M136.65,-154.97C144.33,-142.09 155.33,-123.62 165.99,-105.73"/>
<polygon fill="#727a6b" stroke="#727a6b" stroke-width="2" points="169.07,-107.4 171.18,-97.02 163.06,-103.81 169.07,-107.4"/>
</g>
</g>
</svg>
