<?xml version="1.0" encoding="UTF-8" standalone="no"?>
<!DOCTYPE svg PUBLIC "-//W3C//DTD SVG 1.1//EN"
 "http://www.w3.org/Graphics/SVG/1.1/DTD/svg11.dtd">
<!-- Generated by graphviz version 2.44.0 (0)
 -->
<!-- Title: QueryGraph Pages: 1 -->
<svg width="376pt" height="323pt"
 viewBox="0.00 0.00 376.00 323.00" xmlns="http://www.w3.org/2000/svg" xmlns:xlink="http://www.w3.org/1999/xlink">
<g id="graph0" class="graph" transform="scale(1 1) rotate(0) translate(4 319)">
<title>QueryGraph</title>
<polygon fill="white" stroke="transparent" points="-4,4 -4,-319 372,-319 372,4 -4,4"/>
<g id="clust1" class="cluster">
<title>cluster_0</title>
<path fill="white" stroke="#1c2915" stroke-width="3" d="M20,-128C20,-128 312,-128 312,-128 318,-128 324,-134 324,-140 324,-140 324,-295 324,-295 324,-301 318,-307 312,-307 312,-307 20,-307 20,-307 14,-307 8,-301 8,-295 8,-295 8,-140 8,-140 8,-134 14,-128 20,-128"/>
</g>
<!-- dt0_header -->
<g id="node1" class="node">
<title>dt0_header</title>
<polygon fill="#ccd5c4" stroke="transparent" points="16,-280 16,-299 316,-299 316,-280 16,-280"/>
<text text-anchor="start" x="158.5" y="-288" font-family="Helvetica" font-weight="bold" font-size="10.00" fill="#1c2915">dt1</text>
<text text-anchor="start" x="20" y="-268" font-family="Helvetica" font-size="10.00" fill="#1c2915">count := dt1.count</text>
<polygon fill="#ede3d9" stroke="transparent" points="16,-242 16,-261 316,-261 316,-242 16,-242"/>
<text text-anchor="start" x="20" y="-249" font-family="Helvetica" font-size="10.00" fill="#1c2915">AGG: count := count()</text>
<polygon fill="#ede3d9" stroke="transparent" points="16,-223 16,-242 316,-242 316,-223 16,-223"/>
<text text-anchor="start" x="20" y="-230" font-family="Helvetica" font-size="10.00" fill="#1c2915">JOIN: 1. t2.n_regionkey = t3.r_regionkey</text>
</g>
<!-- dt0_t3 -->
<g id="node3" class="node">
<title>dt0_t3</title>
<ellipse fill="#af9d89" stroke="#1c2915" cx="166" cy="-150.5" rx="14.5" ry="14.5"/>
<text text-anchor="middle" x="166" y="-148" font-family="Helvetica" font-size="10.00" fill="#1c2915">t3</text>
</g>
<!-- dt0_header&#45;&gt;dt0_t3 -->
<!-- dt0_t2 -->
<g id="node2" class="node">
<title>dt0_t2</title>
<ellipse fill="#af9d89" stroke="#1c2915" cx="94" cy="-150.5" rx="14.5" ry="14.5"/>
<text text-anchor="middle" x="94" y="-148" font-family="Helvetica" font-size="10.00" fill="#1c2915">t2</text>
</g>
<!-- dt0_t2&#45;&gt;dt0_t3 -->
<g id="edge2" class="edge">
<title>dt0_t2&#45;&gt;dt0_t3</title>
<path fill="none" stroke="#727a6b" stroke-width="2" d="M108.77,-149.38C118.03,-148.88 126.75,-149.08 151.2,-149.96"/>
<text text-anchor="middle" x="121.29" y="-151.95" font-family="Helvetica" font-size="9.00" fill="#1c2915">1</text>
</g>
<!-- node_5 -->
<g id="node4" class="node">
<title>node_5</title>
<polygon fill="#ccd5c4" stroke="transparent" points="129,-39 129,-58 204,-58 204,-39 129,-39"/>
<text text-anchor="start" x="133" y="-47" font-family="Helvetica" font-weight="bold" font-size="10.00" fill="#1c2915">t2 (tiny.nation)</text>
<text text-anchor="start" x="133" y="-27" font-family="Helvetica" font-size="10.00" fill="#1c2915">n_regionkey</text>
<polygon fill="none" stroke="#1c2915" points="127.5,-19 127.5,-59 204.5,-59 204.5,-19 127.5,-19"/>
</g>
<!-- dt0_t3&#45;&gt;node_5 -->
<!-- node_10 -->
<g id="node5" class="node">
<title>node_10</title>
<polygon fill="#ccd5c4" stroke="transparent" points="249,-58 249,-77 367,-77 367,-58 249,-58"/>
<text text-anchor="start" x="274" y="-66" font-family="Helvetica" font-weight="bold" font-size="10.00" fill="#1c2915">t3 (tiny.region)</text>
<text text-anchor="start" x="253" y="-46" font-family="Helvetica" font-size="10.00" fill="#1c2915">r_regionkey</text>
<text text-anchor="start" x="253" y="-27" font-family="Helvetica" font-size="10.00" fill="#1c2915">r_name</text>
<polygon fill="#ede3d9" stroke="transparent" points="249,-1 249,-20 367,-20 367,-1 249,-1"/>
<text text-anchor="start" x="253" y="-8" font-family="Helvetica" font-size="10.00" fill="#1c2915">eq(t3.r_name, &quot;AFRICA&quot;)</text>
<polygon fill="none" stroke="#1c2915" points="248,0 248,-78 368,-78 368,0 248,0"/>
</g>
<!-- node_5&#45;&gt;node_10 -->
</g>
</svg>
