<?xml version="1.0" encoding="UTF-8" standalone="no"?>
<!DOCTYPE svg PUBLIC "-//W3C//DTD SVG 1.1//EN"
 "http://www.w3.org/Graphics/SVG/1.1/DTD/svg11.dtd">
<!-- Generated by graphviz version 2.44.0 (0)
 -->
<!-- Title: QueryGraph Pages: 1 -->
<svg width="340pt" height="262pt"
 viewBox="0.00 0.00 340.00 262.00" xmlns="http://www.w3.org/2000/svg" xmlns:xlink="http://www.w3.org/1999/xlink">
<g id="graph0" class="graph" transform="scale(1 1) rotate(0) translate(4 258)">
<title>QueryGraph</title>
<polygon fill="white" stroke="transparent" points="-4,4 -4,-258 336,-258 336,4 -4,4"/>
<g id="clust1" class="cluster">
<title>cluster_0</title>
<path fill="white" stroke="#1c2915" stroke-width="3" d="M20,-86C20,-86 312,-86 312,-86 318,-86 324,-92 324,-98 324,-98 324,-234 324,-234 324,-240 318,-246 312,-246 312,-246 20,-246 20,-246 14,-246 8,-240 8,-234 8,-234 8,-98 8,-98 8,-92 14,-86 20,-86"/>
</g>
<!-- dt0_header -->
<g id="node1" class="node">
<title>dt0_header</title>
<polygon fill="#ccd5c4" stroke="transparent" points="16,-218.5 16,-237.5 316,-237.5 316,-218.5 16,-218.5"/>
<text text-anchor="start" x="158.5" y="-226.5" font-family="Helvetica" font-weight="bold" font-size="10.00" fill="#1c2915">dt1</text>
<text text-anchor="start" x="20" y="-206.5" font-family="Helvetica" font-size="10.00" fill="#1c2915">count := dt1.count</text>
<polygon fill="#ede3d9" stroke="transparent" points="16,-180.5 16,-199.5 316,-199.5 316,-180.5 16,-180.5"/>
<text text-anchor="start" x="20" y="-187.5" font-family="Helvetica" font-size="10.00" fill="#1c2915">AGG: count := count()</text>
</g>
<!-- dt0_t2 -->
<g id="node2" class="node">
<title>dt0_t2</title>
<ellipse fill="#af9d89" stroke="#1c2915" cx="166" cy="-108.5" rx="14.5" ry="14.5"/>
<text text-anchor="middle" x="166" y="-106" font-family="Helvetica" font-size="10.00" fill="#1c2915">t2</text>
</g>
<!-- dt0_header&#45;&gt;dt0_t2 -->
<!-- node_5 -->
<g id="node3" class="node">
<title>node_5</title>
<polygon fill="#ccd5c4" stroke="transparent" points="129,-8 129,-27 204,-27 204,-8 129,-8"/>
<text text-anchor="start" x="133" y="-16" font-family="Helvetica" font-weight="bold" font-size="10.00" fill="#1c2915">t2 (tiny.nation)</text>
<polygon fill="none" stroke="#1c2915" points="127.5,-7.5 127.5,-28.5 204.5,-28.5 204.5,-7.5 127.5,-7.5"/>
</g>
<!-- dt0_t2&#45;&gt;node_5 -->
</g>
</svg>
