<?xml version="1.0" encoding="UTF-8" standalone="no"?>
<!DOCTYPE svg PUBLIC "-//W3C//DTD SVG 1.1//EN"
 "http://www.w3.org/Graphics/SVG/1.1/DTD/svg11.dtd">
<!-- Generated by graphviz version 2.44.0 (0)
 -->
<!-- Title: QueryGraph Pages: 1 -->
<svg width="683pt" height="708pt"
 viewBox="0.00 0.00 683.00 708.00" xmlns="http://www.w3.org/2000/svg" xmlns:xlink="http://www.w3.org/1999/xlink">
<g id="graph0" class="graph" transform="scale(1 1) rotate(0) translate(4 704)">
<title>QueryGraph</title>
<polygon fill="white" stroke="transparent" points="-4,4 -4,-704 679,-704 679,4 -4,4"/>
<g id="clust1" class="cluster">
<title>cluster_0</title>
<path fill="white" stroke="#1c2915" stroke-width="3" d="M20,-532C20,-532 312,-532 312,-532 318,-532 324,-538 324,-544 324,-544 324,-680 324,-680 324,-686 318,-692 312,-692 312,-692 20,-692 20,-692 14,-692 8,-686 8,-680 8,-680 8,-544 8,-544 8,-538 14,-532 20,-532"/>
</g>
<g id="clust3" class="cluster">
<title>cluster_1</title>
<path fill="white" stroke="#1c2915" d="M20,-311C20,-311 312,-311 312,-311 318,-311 324,-317 324,-323 324,-323 324,-478 324,-478 324,-484 318,-490 312,-490 312,-490 20,-490 20,-490 14,-490 8,-484 8,-478 8,-478 8,-323 8,-323 8,-317 14,-311 20,-311"/>
</g>
<g id="clust5" class="cluster">
<title>cluster_2</title>
<path fill="white" stroke="#1c2915" d="M20,-128C20,-128 312,-128 312,-128 318,-128 324,-134 324,-140 324,-140 324,-257 324,-257 324,-263 318,-269 312,-269 312,-269 20,-269 20,-269 14,-269 8,-263 8,-257 8,-257 8,-140 8,-140 8,-134 14,-128 20,-128"/>
</g>
<g id="clust7" class="cluster">
<title>cluster_15</title>
<path fill="white" stroke="#1c2915" d="M363,-128C363,-128 655,-128 655,-128 661,-128 667,-134 667,-140 667,-140 667,-257 667,-257 667,-263 661,-269 655,-269 655,-269 363,-269 363,-269 357,-269 351,-263 351,-257 351,-257 351,-140 351,-140 351,-134 357,-128 363,-128"/>
</g>
<!-- dt0_header -->
<g id="node1" class="node">
<title>dt0_header</title>
<polygon fill="#ccd5c4" stroke="transparent" points="16,-664.5 16,-683.5 316,-683.5 316,-664.5 16,-664.5"/>
<text text-anchor="start" x="158.5" y="-672.5" font-family="Helvetica" font-weight="bold" font-size="10.00" fill="#1c2915">dt1</text>
<text text-anchor="start" x="20" y="-652.5" font-family="Helvetica" font-size="10.00" fill="#1c2915">n_nationkey := dt2.n_nationkey</text>
<polygon fill="#ede3d9" stroke="transparent" points="16,-626.5 16,-645.5 316,-645.5 316,-626.5 16,-626.5"/>
<text text-anchor="start" x="20" y="-633.5" font-family="Helvetica" font-size="10.00" fill="#1c2915">GROUP BY: dt2.n_nationkey</text>
</g>
<!-- dt0_dt2 -->
<g id="node2" class="node">
<title>dt0_dt2</title>
<path fill="#af9d89" stroke="#1c2915" d="M171.33,-569C171.33,-569 160.67,-569 160.67,-569 155.83,-569 151,-564.17 151,-559.33 151,-559.33 151,-549.67 151,-549.67 151,-544.83 155.83,-540 160.67,-540 160.67,-540 171.33,-540 171.33,-540 176.17,-540 181,-544.83 181,-549.67 181,-549.67 181,-559.33 181,-559.33 181,-564.17 176.17,-569 171.33,-569"/>
<text text-anchor="middle" x="166" y="-552" font-family="Helvetica" font-size="10.00" fill="#1c2915">dt2</text>
</g>
<!-- dt0_header&#45;&gt;dt0_dt2 -->
<!-- dt1_header -->
<g id="node3" class="node">
<title>dt1_header</title>
<polygon fill="#ccd5c4" stroke="transparent" points="16,-463 16,-482 316,-482 316,-463 16,-463"/>
<text text-anchor="start" x="158.5" y="-471" font-family="Helvetica" font-weight="bold" font-size="10.00" fill="#1c2915">dt2</text>
<text text-anchor="start" x="20" y="-451" font-family="Helvetica" font-size="10.00" fill="#1c2915">n_nationkey := dt2.n_nationkey</text>
<polygon fill="#ede3d9" stroke="transparent" points="16,-425 16,-444 316,-444 316,-425 16,-425"/>
<text text-anchor="start" x="20" y="-432" font-family="Helvetica" font-size="10.00" fill="#1c2915">GROUP BY: dt3.n_nationkey</text>
<polygon fill="#ede3d9" stroke="transparent" points="16,-406 16,-425 316,-425 316,-406 16,-406"/>
<text text-anchor="start" x="20" y="-413" font-family="Helvetica" font-size="10.00" fill="#1c2915">JOIN: 1. SEMI: dt3.n_nationkey = dt5.n_nationkey_4</text>
</g>
<!-- dt0_dt2&#45;&gt;dt1_header -->
<!-- dt1_dt5 -->
<g id="node5" class="node">
<title>dt1_dt5</title>
<path fill="#af9d89" stroke="#1c2915" d="M171.33,-348C171.33,-348 160.67,-348 160.67,-348 155.83,-348 151,-343.17 151,-338.33 151,-338.33 151,-328.67 151,-328.67 151,-323.83 155.83,-319 160.67,-319 160.67,-319 171.33,-319 171.33,-319 176.17,-319 181,-323.83 181,-328.67 181,-328.67 181,-338.33 181,-338.33 181,-343.17 176.17,-348 171.33,-348"/>
<text text-anchor="middle" x="166" y="-331" font-family="Helvetica" font-size="10.00" fill="#1c2915">dt5</text>
</g>
<!-- dt1_header&#45;&gt;dt1_dt5 -->
<!-- dt1_dt3 -->
<g id="node4" class="node">
<title>dt1_dt3</title>
<path fill="#af9d89" stroke="#1c2915" d="M98.33,-348C98.33,-348 87.67,-348 87.67,-348 82.83,-348 78,-343.17 78,-338.33 78,-338.33 78,-328.67 78,-328.67 78,-323.83 82.83,-319 87.67,-319 87.67,-319 98.33,-319 98.33,-319 103.17,-319 108,-323.83 108,-328.67 108,-328.67 108,-338.33 108,-338.33 108,-343.17 103.17,-348 98.33,-348"/>
<text text-anchor="middle" x="93" y="-331" font-family="Helvetica" font-size="10.00" fill="#1c2915">dt3</text>
</g>
<!-- dt1_dt3&#45;&gt;dt1_dt5 -->
<g id="edge3" class="edge">
<title>dt1_dt3&#45;&gt;dt1_dt5</title>
<path fill="none" stroke="#727a6b" stroke-width="2" d="M108.29,-332.79C116.07,-332.54 123.62,-332.59 140.43,-332.94"/>
<polygon fill="#727a6b" stroke="#727a6b" stroke-width="2" points="140.7,-336.44 150.78,-333.16 140.85,-329.44 140.7,-336.44"/>
<text text-anchor="middle" x="126.11" y="-335.53" font-family="Helvetica" font-size="9.00" fill="#1c2915">1</text>
</g>
<!-- dt2_header -->
<g id="node6" class="node">
<title>dt2_header</title>
<polygon fill="#ccd5c4" stroke="transparent" points="16,-242 16,-261 316,-261 316,-242 16,-242"/>
<text text-anchor="start" x="158.5" y="-250" font-family="Helvetica" font-weight="bold" font-size="10.00" fill="#1c2915">dt3</text>
<text text-anchor="start" x="20" y="-230" font-family="Helvetica" font-size="10.00" fill="#1c2915">n_nationkey := t4.n_nationkey</text>
</g>
<!-- dt1_dt5&#45;&gt;dt2_header -->
<!-- dt2_t4 -->
<g id="node7" class="node">
<title>dt2_t4</title>
<ellipse fill="#af9d89" stroke="#1c2915" cx="166" cy="-150.5" rx="14.5" ry="14.5"/>
<text text-anchor="middle" x="166" y="-148" font-family="Helvetica" font-size="10.00" fill="#1c2915">t4</text>
</g>
<!-- dt2_header&#45;&gt;dt2_t4 -->
<!-- dt15_header -->
<g id="node9" class="node">
<title>dt15_header</title>
<polygon fill="#ccd5c4" stroke="transparent" points="359,-242 359,-261 659,-261 659,-242 359,-242"/>
<text text-anchor="start" x="501.5" y="-250" font-family="Helvetica" font-weight="bold" font-size="10.00" fill="#1c2915">dt5</text>
<text text-anchor="start" x="363" y="-230" font-family="Helvetica" font-size="10.00" fill="#1c2915">n_nationkey_4 := t6.n_nationkey</text>
</g>
<!-- dt2_header&#45;&gt;dt15_header -->
<!-- node_7 -->
<g id="node8" class="node">
<title>node_7</title>
<polygon fill="#ccd5c4" stroke="transparent" points="117,-58 117,-77 216,-77 216,-58 117,-58"/>
<text text-anchor="start" x="133" y="-66" font-family="Helvetica" font-weight="bold" font-size="10.00" fill="#1c2915">t4 (tiny.nation)</text>
<text text-anchor="start" x="121" y="-46" font-family="Helvetica" font-size="10.00" fill="#1c2915">n_nationkey</text>
<text text-anchor="start" x="121" y="-27" font-family="Helvetica" font-size="10.00" fill="#1c2915">n_regionkey</text>
<polygon fill="#ede3d9" stroke="transparent" points="117,-1 117,-20 216,-20 216,-1 117,-1"/>
<text text-anchor="start" x="121" y="-8" font-family="Helvetica" font-size="10.00" fill="#1c2915">eq(t4.n_regionkey, 0)</text>
<polygon fill="none" stroke="#1c2915" points="115.5,0 115.5,-78 216.5,-78 216.5,0 115.5,0"/>
</g>
<!-- dt2_t4&#45;&gt;node_7 -->
<!-- dt15_t6 -->
<g id="node10" class="node">
<title>dt15_t6</title>
<ellipse fill="#af9d89" stroke="#1c2915" cx="509" cy="-150.5" rx="14.5" ry="14.5"/>
<text text-anchor="middle" x="509" y="-148" font-family="Helvetica" font-size="10.00" fill="#1c2915">t6</text>
</g>
<!-- dt15_header&#45;&gt;dt15_t6 -->
<!-- node_16 -->
<g id="node11" class="node">
<title>node_16</title>
<polygon fill="#ccd5c4" stroke="transparent" points="460,-58 460,-77 559,-77 559,-58 460,-58"/>
<text text-anchor="start" x="476" y="-66" font-family="Helvetica" font-weight="bold" font-size="10.00" fill="#1c2915">t6 (tiny.nation)</text>
<text text-anchor="start" x="464" y="-46" font-family="Helvetica" font-size="10.00" fill="#1c2915">n_nationkey</text>
<text text-anchor="start" x="464" y="-27" font-family="Helvetica" font-size="10.00" fill="#1c2915">n_regionkey</text>
<polygon fill="#ede3d9" stroke="transparent" points="460,-1 460,-20 559,-20 559,-1 460,-1"/>
<text text-anchor="start" x="464" y="-8" font-family="Helvetica" font-size="10.00" fill="#1c2915">eq(t6.n_regionkey, 2)</text>
<polygon fill="none" stroke="#1c2915" points="458.5,0 458.5,-78 559.5,-78 559.5,0 458.5,0"/>
</g>
<!-- dt15_t6&#45;&gt;node_16 -->
</g>
</svg>
