<?xml version="1.0" encoding="UTF-8" standalone="no"?>
<!DOCTYPE svg PUBLIC "-//W3C//DTD SVG 1.1//EN"
 "http://www.w3.org/Graphics/SVG/1.1/DTD/svg11.dtd">
<!-- Generated by graphviz version 2.44.0 (0)
 -->
<!-- Title: QueryGraph Pages: 1 -->
<svg width="683pt" height="860pt"
 viewBox="0.00 0.00 683.00 860.00" xmlns="http://www.w3.org/2000/svg" xmlns:xlink="http://www.w3.org/1999/xlink">
<g id="graph0" class="graph" transform="scale(1 1) rotate(0) translate(4 856)">
<title>QueryGraph</title>
<polygon fill="white" stroke="transparent" points="-4,4 -4,-856 679,-856 679,4 -4,4"/>
<g id="clust1" class="cluster">
<title>cluster_0</title>
<path fill="white" stroke="#1c2915" stroke-width="3" d="M20,-646C20,-646 312,-646 312,-646 318,-646 324,-652 324,-658 324,-658 324,-832 324,-832 324,-838 318,-844 312,-844 312,-844 20,-844 20,-844 14,-844 8,-838 8,-832 8,-832 8,-658 8,-658 8,-652 14,-646 20,-646"/>
</g>
<g id="clust3" class="cluster">
<title>cluster_1</title>
<path fill="white" stroke="#1c2915" d="M20,-406C20,-406 312,-406 312,-406 318,-406 324,-412 324,-418 324,-418 324,-592 324,-592 324,-598 318,-604 312,-604 312,-604 20,-604 20,-604 14,-604 8,-598 8,-592 8,-592 8,-418 8,-418 8,-412 14,-406 20,-406"/>
</g>
<g id="clust5" class="cluster">
<title>cluster_2</title>
<path fill="white" stroke="#1c2915" d="M20,-166C20,-166 312,-166 312,-166 318,-166 324,-172 324,-178 324,-178 324,-352 324,-352 324,-358 318,-364 312,-364 312,-364 20,-364 20,-364 14,-364 8,-358 8,-352 8,-352 8,-178 8,-178 8,-172 14,-166 20,-166"/>
</g>
<g id="clust7" class="cluster">
<title>cluster_20</title>
<path fill="white" stroke="#1c2915" d="M363,-166C363,-166 655,-166 655,-166 661,-166 667,-172 667,-178 667,-178 667,-352 667,-352 667,-358 661,-364 655,-364 655,-364 363,-364 363,-364 357,-364 351,-358 351,-352 351,-352 351,-178 351,-178 351,-172 357,-166 363,-166"/>
</g>
<!-- dt0_header -->
<g id="node1" class="node">
<title>dt0_header</title>
<polygon fill="#ccd5c4" stroke="transparent" points="16,-816.5 16,-835.5 316,-835.5 316,-816.5 16,-816.5"/>
<text text-anchor="start" x="158.5" y="-824.5" font-family="Helvetica" font-weight="bold" font-size="10.00" fill="#1c2915">dt1</text>
<text text-anchor="start" x="20" y="-804.5" font-family="Helvetica" font-size="10.00" fill="#1c2915">n_nationkey := dt2.n_nationkey</text>
<text text-anchor="start" x="20" y="-785.5" font-family="Helvetica" font-size="10.00" fill="#1c2915">n_name := dt2.n_name</text>
<text text-anchor="start" x="20" y="-766.5" font-family="Helvetica" font-size="10.00" fill="#1c2915">n_regionkey := dt2.n_regionkey</text>
<text text-anchor="start" x="20" y="-747.5" font-family="Helvetica" font-size="10.00" fill="#1c2915">n_comment := dt2.n_comment</text>
</g>
<!-- dt0_dt2 -->
<g id="node2" class="node">
<title>dt0_dt2</title>
<path fill="#af9d89" stroke="#1c2915" d="M171.33,-683C171.33,-683 160.67,-683 160.67,-683 155.83,-683 151,-678.17 151,-673.33 151,-673.33 151,-663.67 151,-663.67 151,-658.83 155.83,-654 160.67,-654 160.67,-654 171.33,-654 171.33,-654 176.17,-654 181,-658.83 181,-663.67 181,-663.67 181,-673.33 181,-673.33 181,-678.17 176.17,-683 171.33,-683"/>
<text text-anchor="middle" x="166" y="-666" font-family="Helvetica" font-size="10.00" fill="#1c2915">dt2</text>
</g>
<!-- dt0_header&#45;&gt;dt0_dt2 -->
<!-- dt1_header -->
<g id="node3" class="node">
<title>dt1_header</title>
<polygon fill="#ccd5c4" stroke="transparent" points="16,-576.5 16,-595.5 316,-595.5 316,-576.5 16,-576.5"/>
<text text-anchor="start" x="129.5" y="-584.5" font-family="Helvetica" font-weight="bold" font-size="10.00" fill="#1c2915">dt2 UNION ALL</text>
<text text-anchor="start" x="20" y="-564.5" font-family="Helvetica" font-size="10.00" fill="#1c2915">n_nationkey</text>
<text text-anchor="start" x="20" y="-545.5" font-family="Helvetica" font-size="10.00" fill="#1c2915">n_name</text>
<text text-anchor="start" x="20" y="-526.5" font-family="Helvetica" font-size="10.00" fill="#1c2915">n_regionkey</text>
<text text-anchor="start" x="20" y="-507.5" font-family="Helvetica" font-size="10.00" fill="#1c2915">n_comment</text>
</g>
<!-- dt0_dt2&#45;&gt;dt1_header -->
<!-- dt1_dt5 -->
<g id="node5" class="node">
<title>dt1_dt5</title>
<path fill="#af9d89" stroke="#1c2915" d="M171.33,-443C171.33,-443 160.67,-443 160.67,-443 155.83,-443 151,-438.17 151,-433.33 151,-433.33 151,-423.67 151,-423.67 151,-418.83 155.83,-414 160.67,-414 160.67,-414 171.33,-414 171.33,-414 176.17,-414 181,-418.83 181,-423.67 181,-423.67 181,-433.33 181,-433.33 181,-438.17 176.17,-443 171.33,-443"/>
<text text-anchor="middle" x="166" y="-426" font-family="Helvetica" font-size="10.00" fill="#1c2915">dt5</text>
</g>
<!-- dt1_header&#45;&gt;dt1_dt5 -->
<!-- dt1_dt3 -->
<g id="node4" class="node">
<title>dt1_dt3</title>
<path fill="#af9d89" stroke="#1c2915" d="M67.33,-443C67.33,-443 56.67,-443 56.67,-443 51.83,-443 47,-438.17 47,-433.33 47,-433.33 47,-423.67 47,-423.67 47,-418.83 51.83,-414 56.67,-414 56.67,-414 67.33,-414 67.33,-414 72.17,-414 77,-418.83 77,-423.67 77,-423.67 77,-433.33 77,-433.33 77,-438.17 72.17,-443 67.33,-443"/>
<text text-anchor="middle" x="62" y="-426" font-family="Helvetica" font-size="10.00" fill="#1c2915">dt3</text>
</g>
<!-- dt2_header -->
<g id="node6" class="node">
<title>dt2_header</title>
<polygon fill="#ccd5c4" stroke="transparent" points="16,-336.5 16,-355.5 316,-355.5 316,-336.5 16,-336.5"/>
<text text-anchor="start" x="158.5" y="-344.5" font-family="Helvetica" font-weight="bold" font-size="10.00" fill="#1c2915">dt3</text>
<text text-anchor="start" x="20" y="-324.5" font-family="Helvetica" font-size="10.00" fill="#1c2915">n_nationkey := t4.n_nationkey</text>
<text text-anchor="start" x="20" y="-305.5" font-family="Helvetica" font-size="10.00" fill="#1c2915">n_name := t4.n_name</text>
<text text-anchor="start" x="20" y="-286.5" font-family="Helvetica" font-size="10.00" fill="#1c2915">n_regionkey := t4.n_regionkey</text>
<text text-anchor="start" x="20" y="-267.5" font-family="Helvetica" font-size="10.00" fill="#1c2915">n_comment := t4.n_comment</text>
</g>
<!-- dt1_dt5&#45;&gt;dt2_header -->
<!-- dt2_t4 -->
<g id="node7" class="node">
<title>dt2_t4</title>
<ellipse fill="#af9d89" stroke="#1c2915" cx="166" cy="-188.5" rx="14.5" ry="14.5"/>
<text text-anchor="middle" x="166" y="-186" font-family="Helvetica" font-size="10.00" fill="#1c2915">t4</text>
</g>
<!-- dt2_header&#45;&gt;dt2_t4 -->
<!-- dt20_header -->
<g id="node9" class="node">
<title>dt20_header</title>
<polygon fill="#ccd5c4" stroke="transparent" points="359,-336.5 359,-355.5 659,-355.5 659,-336.5 359,-336.5"/>
<text text-anchor="start" x="501.5" y="-344.5" font-family="Helvetica" font-weight="bold" font-size="10.00" fill="#1c2915">dt5</text>
<text text-anchor="start" x="363" y="-324.5" font-family="Helvetica" font-size="10.00" fill="#1c2915">n_nationkey := t6.n_nationkey</text>
<text text-anchor="start" x="363" y="-305.5" font-family="Helvetica" font-size="10.00" fill="#1c2915">n_name := t6.n_name</text>
<text text-anchor="start" x="363" y="-286.5" font-family="Helvetica" font-size="10.00" fill="#1c2915">n_regionkey := t6.n_regionkey</text>
<text text-anchor="start" x="363" y="-267.5" font-family="Helvetica" font-size="10.00" fill="#1c2915">n_comment := t6.n_comment</text>
</g>
<!-- dt2_header&#45;&gt;dt20_header -->
<!-- node_7 -->
<g id="node8" class="node">
<title>node_7</title>
<polygon fill="#ccd5c4" stroke="transparent" points="117,-96 117,-115 216,-115 216,-96 117,-96"/>
<text text-anchor="start" x="133" y="-104" font-family="Helvetica" font-weight="bold" font-size="10.00" fill="#1c2915">t4 (tiny.nation)</text>
<text text-anchor="start" x="121" y="-84" font-family="Helvetica" font-size="10.00" fill="#1c2915">n_nationkey</text>
<text text-anchor="start" x="121" y="-65" font-family="Helvetica" font-size="10.00" fill="#1c2915">n_name</text>
<text text-anchor="start" x="121" y="-46" font-family="Helvetica" font-size="10.00" fill="#1c2915">n_regionkey</text>
<text text-anchor="start" x="121" y="-27" font-family="Helvetica" font-size="10.00" fill="#1c2915">n_comment</text>
<polygon fill="#ede3d9" stroke="transparent" points="117,-1 117,-20 216,-20 216,-1 117,-1"/>
<text text-anchor="start" x="121" y="-8" font-family="Helvetica" font-size="10.00" fill="#1c2915">eq(t4.n_regionkey, 0)</text>
<polygon fill="none" stroke="#1c2915" points="115.5,0 115.5,-116 216.5,-116 216.5,0 115.5,0"/>
</g>
<!-- dt2_t4&#45;&gt;node_7 -->
<!-- dt20_t6 -->
<g id="node10" class="node">
<title>dt20_t6</title>
<ellipse fill="#af9d89" stroke="#1c2915" cx="509" cy="-188.5" rx="14.5" ry="14.5"/>
<text text-anchor="middle" x="509" y="-186" font-family="Helvetica" font-size="10.00" fill="#1c2915">t6</text>
</g>
<!-- dt20_header&#45;&gt;dt20_t6 -->
<!-- node_21 -->
<g id="node11" class="node">
<title>node_21</title>
<polygon fill="#ccd5c4" stroke="transparent" points="460,-96 460,-115 559,-115 559,-96 460,-96"/>
<text text-anchor="start" x="476" y="-104" font-family="Helvetica" font-weight="bold" font-size="10.00" fill="#1c2915">t6 (tiny.nation)</text>
<text text-anchor="start" x="464" y="-84" font-family="Helvetica" font-size="10.00" fill="#1c2915">n_nationkey</text>
<text text-anchor="start" x="464" y="-65" font-family="Helvetica" font-size="10.00" fill="#1c2915">n_name</text>
<text text-anchor="start" x="464" y="-46" font-family="Helvetica" font-size="10.00" fill="#1c2915">n_regionkey</text>
<text text-anchor="start" x="464" y="-27" font-family="Helvetica" font-size="10.00" fill="#1c2915">n_comment</text>
<polygon fill="#ede3d9" stroke="transparent" points="460,-1 460,-20 559,-20 559,-1 460,-1"/>
<text text-anchor="start" x="464" y="-8" font-family="Helvetica" font-size="10.00" fill="#1c2915">eq(t6.n_regionkey, 2)</text>
<polygon fill="none" stroke="#1c2915" points="458.5,0 458.5,-116 559.5,-116 559.5,0 458.5,0"/>
</g>
<!-- dt20_t6&#45;&gt;node_21 -->
</g>
</svg>
