<svg xmlns="http://www.w3.org/2000/svg" width="1000" height="380" font-family="sans-serif" font-size="11">
<rect width="1000" height="380" fill="#F7F7FF"/>
<text x="500.0" y="20" text-anchor="middle" font-size="14" font-weight="bold" fill="#2D3047">TPC-H total CPU, sf1 (median ms): v1 vs v2</text>
<line x1="60" y1="330.0" x2="980" y2="330.0" stroke="#D9DCE6"/>
<text x="54" y="333.0" text-anchor="end" fill="#2D3047">0</text>
<line x1="60" y1="272.0" x2="980" y2="272.0" stroke="#D9DCE6"/>
<text x="54" y="275.0" text-anchor="end" fill="#2D3047">1000</text>
<line x1="60" y1="214.0" x2="980" y2="214.0" stroke="#D9DCE6"/>
<text x="54" y="217.0" text-anchor="end" fill="#2D3047">2000</text>
<line x1="60" y1="156.0" x2="980" y2="156.0" stroke="#D9DCE6"/>
<text x="54" y="159.0" text-anchor="end" fill="#2D3047">3000</text>
<line x1="60" y1="98.0" x2="980" y2="98.0" stroke="#D9DCE6"/>
<text x="54" y="101.0" text-anchor="end" fill="#2D3047">4000</text>
<line x1="60" y1="40.0" x2="980" y2="40.0" stroke="#D9DCE6"/>
<text x="54" y="43.0" text-anchor="end" fill="#2D3047">5000</text>
<rect x="67.0" y="311.7" width="12" height="18.3" fill="#2EC4B6"/>
<rect x="81.0" y="312.5" width="12" height="17.5" fill="#FF7A59"/>
<text x="80.0" y="344.0" text-anchor="middle" fill="#2D3047">q1</text>
<rect x="107.0" y="323.1" width="12" height="6.9" fill="#2EC4B6"/>
<rect x="121.0" y="320.2" width="12" height="9.8" fill="#800020"/>
<text x="120.0" y="344.0" text-anchor="middle" fill="#2D3047">q2</text>
<rect x="147.0" y="305.0" width="12" height="25.0" fill="#2EC4B6"/>
<rect x="161.0" y="302.6" width="12" height="27.4" fill="#FF7A59"/>
<text x="160.0" y="344.0" text-anchor="middle" fill="#2D3047">q3</text>
<rect x="187.0" y="312.6" width="12" height="17.4" fill="#2EC4B6"/>
<rect x="201.0" y="312.6" width="12" height="17.4" fill="#FF7A59"/>
<text x="200.0" y="344.0" text-anchor="middle" fill="#2D3047">q4</text>
<rect x="227.0" y="310.1" width="12" height="19.9" fill="#2EC4B6"/>
<rect x="241.0" y="311.5" width="12" height="18.5" fill="#FF7A59"/>
<text x="240.0" y="344.0" text-anchor="middle" fill="#2D3047">q5</text>
<rect x="267.0" y="323.2" width="12" height="6.8" fill="#2EC4B6"/>
<rect x="281.0" y="323.1" width="12" height="6.9" fill="#FF7A59"/>
<text x="280.0" y="344.0" text-anchor="middle" fill="#2D3047">q6</text>
<rect x="307.0" y="307.5" width="12" height="22.5" fill="#2EC4B6"/>
<rect x="321.0" y="307.3" width="12" height="22.7" fill="#FF7A59"/>
<text x="320.0" y="344.0" text-anchor="middle" fill="#2D3047">q7</text>
<rect x="347.0" y="308.3" width="12" height="21.7" fill="#2EC4B6"/>
<rect x="361.0" y="309.5" width="12" height="20.5" fill="#FF7A59"/>
<text x="360.0" y="344.0" text-anchor="middle" fill="#2D3047">q8</text>
<rect x="387.0" y="245.1" width="12" height="84.9" fill="#2EC4B6"/>
<rect x="401.0" y="292.8" width="12" height="37.2" fill="#FF7A59"/>
<text x="400.0" y="344.0" text-anchor="middle" fill="#2D3047">q9</text>
<rect x="427.0" y="284.0" width="12" height="46.0" fill="#2EC4B6"/>
<rect x="441.0" y="302.0" width="12" height="28.0" fill="#FF7A59"/>
<text x="440.0" y="344.0" text-anchor="middle" fill="#2D3047">q10</text>
<rect x="467.0" y="325.2" width="12" height="4.8" fill="#2EC4B6"/>
<rect x="481.0" y="324.5" width="12" height="5.5" fill="#FF7A59"/>
<text x="480.0" y="344.0" text-anchor="middle" fill="#2D3047">q11</text>
<rect x="507.0" y="320.8" width="12" height="9.2" fill="#2EC4B6"/>
<rect x="521.0" y="318.8" width="12" height="11.2" fill="#FF7A59"/>
<text x="520.0" y="344.0" text-anchor="middle" fill="#2D3047">q12</text>
<rect x="547.0" y="299.1" width="12" height="30.9" fill="#2EC4B6"/>
<rect x="561.0" y="298.9" width="12" height="31.1" fill="#FF7A59"/>
<text x="560.0" y="344.0" text-anchor="middle" fill="#2D3047">q13</text>
<rect x="587.0" y="315.9" width="12" height="14.1" fill="#2EC4B6"/>
<rect x="601.0" y="317.1" width="12" height="12.9" fill="#FF7A59"/>
<text x="600.0" y="344.0" text-anchor="middle" fill="#2D3047">q14</text>
<rect x="627.0" y="314.2" width="12" height="15.8" fill="#2EC4B6"/>
<rect x="641.0" y="314.6" width="12" height="15.4" fill="#FF7A59"/>
<text x="640.0" y="344.0" text-anchor="middle" fill="#2D3047">q15</text>
<rect x="667.0" y="315.8" width="12" height="14.2" fill="#2EC4B6"/>
<rect x="681.0" y="318.7" width="12" height="11.3" fill="#FF7A59"/>
<text x="680.0" y="344.0" text-anchor="middle" fill="#2D3047">q16</text>
<rect x="707.0" y="304.6" width="12" height="25.4" fill="#2EC4B6"/>
<rect x="721.0" y="296.8" width="12" height="33.2" fill="#800020"/>
<text x="720.0" y="344.0" text-anchor="middle" fill="#2D3047">q17</text>
<rect x="747.0" y="177.3" width="12" height="152.7" fill="#2EC4B6"/>
<rect x="761.0" y="264.0" width="12" height="66.0" fill="#FF7A59"/>
<text x="760.0" y="344.0" text-anchor="middle" fill="#2D3047">q18</text>
<rect x="787.0" y="316.6" width="12" height="13.4" fill="#2EC4B6"/>
<rect x="801.0" y="316.6" width="12" height="13.4" fill="#FF7A59"/>
<text x="800.0" y="344.0" text-anchor="middle" fill="#2D3047">q19</text>
<rect x="827.0" y="306.7" width="12" height="23.3" fill="#2EC4B6"/>
<rect x="841.0" y="303.7" width="12" height="26.3" fill="#FF7A59"/>
<text x="840.0" y="344.0" text-anchor="middle" fill="#2D3047">q20</text>
<rect x="867.0" y="251.4" width="12" height="78.6" fill="#2EC4B6"/>
<rect x="881.0" y="277.5" width="12" height="52.5" fill="#FF7A59"/>
<text x="880.0" y="344.0" text-anchor="middle" fill="#2D3047">q21</text>
<rect x="907.0" y="321.5" width="12" height="8.5" fill="#2EC4B6"/>
<rect x="921.0" y="321.4" width="12" height="8.6" fill="#FF7A59"/>
<text x="920.0" y="344.0" text-anchor="middle" fill="#2D3047">q22</text>
<rect x="947.0" y="272.7" width="12" height="57.3" fill="#2EC4B6"/>
<rect x="961.0" y="275.2" width="12" height="54.8" fill="#FF7A59"/>
<text x="960.0" y="344.0" text-anchor="middle" fill="#2D3047">q9_alt</text>
<line x1="60" y1="330" x2="980" y2="330" stroke="#2D3047"/>
<rect x="68" y="42" width="11" height="11" fill="#2EC4B6"/><text x="83" y="52" fill="#2D3047">v1</text><rect x="113" y="42" width="11" height="11" fill="#FF7A59"/><text x="128" y="52" fill="#2D3047">v2</text><rect x="158" y="42" width="11" height="11" fill="#800020"/><text x="173" y="52" fill="#2D3047">v2 regression</text>
</svg>
